<mxfile host="app.diagrams.net" modified="2024-05-16T22:28:52.538Z" agent="Mozilla/5.0 (Windows NT 10.0; Win64; x64) AppleWebKit/537.36 (KHTML, like Gecko) Chrome/124.0.0.0 Safari/537.36" etag="qJ_CaMq0MmUpp56FzXoA" version="24.4.3" type="device">
  <diagram name="Pagina-1" id="Hd_vP3_E5oj_XKeJX3qV">
    <mxGraphModel dx="1290" dy="556" grid="1" gridSize="10" guides="1" tooltips="1" connect="1" arrows="1" fold="1" page="1" pageScale="1" pageWidth="827" pageHeight="1169" math="0" shadow="0">
      <root>
        <mxCell id="0" />
        <mxCell id="1" parent="0" />
        <mxCell id="qq0olDf5YhL5V5anWZCN-1" value="Logout" style="text;html=1;align=center;verticalAlign=middle;resizable=0;points=[];autosize=1;strokeColor=none;fillColor=none;" vertex="1" parent="1">
          <mxGeometry x="60" y="18" width="60" height="30" as="geometry" />
        </mxCell>
        <mxCell id="qq0olDf5YhL5V5anWZCN-2" value="Logout" style="shape=umlLifeline;perimeter=lifelinePerimeter;whiteSpace=wrap;html=1;container=0;dropTarget=0;collapsible=0;recursiveResize=0;outlineConnect=0;portConstraint=eastwest;newEdgeStyle={&quot;edgeStyle&quot;:&quot;elbowEdgeStyle&quot;,&quot;elbow&quot;:&quot;vertical&quot;,&quot;curved&quot;:0,&quot;rounded&quot;:0};" vertex="1" parent="1">
          <mxGeometry x="120" y="48" width="100" height="240" as="geometry" />
        </mxCell>
        <mxCell id="qq0olDf5YhL5V5anWZCN-3" value="" style="html=1;points=[];perimeter=orthogonalPerimeter;outlineConnect=0;targetShapes=umlLifeline;portConstraint=eastwest;newEdgeStyle={&quot;edgeStyle&quot;:&quot;elbowEdgeStyle&quot;,&quot;elbow&quot;:&quot;vertical&quot;,&quot;curved&quot;:0,&quot;rounded&quot;:0};" vertex="1" parent="qq0olDf5YhL5V5anWZCN-2">
          <mxGeometry x="45" y="70" width="10" height="160" as="geometry" />
        </mxCell>
        <mxCell id="qq0olDf5YhL5V5anWZCN-4" value="doPOST" style="html=1;verticalAlign=bottom;startArrow=oval;endArrow=block;startSize=8;edgeStyle=elbowEdgeStyle;elbow=vertical;curved=0;rounded=0;" edge="1" parent="qq0olDf5YhL5V5anWZCN-2" target="qq0olDf5YhL5V5anWZCN-3">
          <mxGeometry relative="1" as="geometry">
            <mxPoint x="-15" y="70" as="sourcePoint" />
          </mxGeometry>
        </mxCell>
        <mxCell id="qq0olDf5YhL5V5anWZCN-5" value="Session" style="shape=umlLifeline;perimeter=lifelinePerimeter;whiteSpace=wrap;html=1;container=0;dropTarget=0;collapsible=0;recursiveResize=0;outlineConnect=0;portConstraint=eastwest;newEdgeStyle={&quot;edgeStyle&quot;:&quot;elbowEdgeStyle&quot;,&quot;elbow&quot;:&quot;vertical&quot;,&quot;curved&quot;:0,&quot;rounded&quot;:0};" vertex="1" parent="1">
          <mxGeometry x="310" y="48" width="100" height="240" as="geometry" />
        </mxCell>
        <mxCell id="qq0olDf5YhL5V5anWZCN-6" value="" style="html=1;points=[];perimeter=orthogonalPerimeter;outlineConnect=0;targetShapes=umlLifeline;portConstraint=eastwest;newEdgeStyle={&quot;edgeStyle&quot;:&quot;elbowEdgeStyle&quot;,&quot;elbow&quot;:&quot;vertical&quot;,&quot;curved&quot;:0,&quot;rounded&quot;:0};" vertex="1" parent="qq0olDf5YhL5V5anWZCN-5">
          <mxGeometry x="45" y="70" width="10" height="50" as="geometry" />
        </mxCell>
        <mxCell id="qq0olDf5YhL5V5anWZCN-8" value="invalidate()" style="html=1;verticalAlign=bottom;endArrow=block;edgeStyle=elbowEdgeStyle;elbow=vertical;curved=0;rounded=0;" edge="1" parent="1" target="qq0olDf5YhL5V5anWZCN-6">
          <mxGeometry relative="1" as="geometry">
            <mxPoint x="177" y="133" as="sourcePoint" />
            <Array as="points">
              <mxPoint x="262" y="133" />
            </Array>
            <mxPoint x="393" y="133" as="targetPoint" />
          </mxGeometry>
        </mxCell>
        <mxCell id="qq0olDf5YhL5V5anWZCN-9" value="login.html" style="shape=umlLifeline;perimeter=lifelinePerimeter;whiteSpace=wrap;html=1;container=0;dropTarget=0;collapsible=0;recursiveResize=0;outlineConnect=0;portConstraint=eastwest;newEdgeStyle={&quot;edgeStyle&quot;:&quot;elbowEdgeStyle&quot;,&quot;elbow&quot;:&quot;vertical&quot;,&quot;curved&quot;:0,&quot;rounded&quot;:0};" vertex="1" parent="1">
          <mxGeometry x="460" y="48" width="100" height="240" as="geometry" />
        </mxCell>
        <mxCell id="qq0olDf5YhL5V5anWZCN-10" value="" style="html=1;points=[];perimeter=orthogonalPerimeter;outlineConnect=0;targetShapes=umlLifeline;portConstraint=eastwest;newEdgeStyle={&quot;edgeStyle&quot;:&quot;elbowEdgeStyle&quot;,&quot;elbow&quot;:&quot;vertical&quot;,&quot;curved&quot;:0,&quot;rounded&quot;:0};" vertex="1" parent="qq0olDf5YhL5V5anWZCN-9">
          <mxGeometry x="45" y="140" width="10" height="35" as="geometry" />
        </mxCell>
        <mxCell id="qq0olDf5YhL5V5anWZCN-11" value="redirect" style="html=1;verticalAlign=bottom;endArrow=block;edgeStyle=elbowEdgeStyle;elbow=vertical;curved=0;rounded=0;" edge="1" parent="1" target="qq0olDf5YhL5V5anWZCN-10">
          <mxGeometry relative="1" as="geometry">
            <mxPoint x="177" y="210" as="sourcePoint" />
            <Array as="points">
              <mxPoint x="262" y="210" />
            </Array>
            <mxPoint x="500" y="210" as="targetPoint" />
          </mxGeometry>
        </mxCell>
        <mxCell id="qq0olDf5YhL5V5anWZCN-12" value="POST&lt;div&gt;/Logout&lt;/div&gt;&lt;div&gt;&lt;br&gt;&lt;/div&gt;&lt;div&gt;From:&lt;/div&gt;&lt;div&gt;Home.html&lt;/div&gt;&lt;div&gt;Album.html&lt;/div&gt;&lt;div&gt;Image.html&lt;/div&gt;" style="text;html=1;align=center;verticalAlign=middle;resizable=0;points=[];autosize=1;strokeColor=none;fillColor=none;" vertex="1" parent="1">
          <mxGeometry x="60" y="130" width="80" height="110" as="geometry" />
        </mxCell>
      </root>
    </mxGraphModel>
  </diagram>
</mxfile>
